<svg width="32" height="32" viewBox="0 0 32 32" fill="none" xmlns="http://www.w3.org/2000/svg">
  <defs>
    <linearGradient id="fbg" x1="0" y1="0" x2="32" y2="32" gradientUnits="userSpaceOnUse">
      <stop stop-color="#4f46e5"/>
      <stop offset="1" stop-color="#6366f1"/>
    </linearGradient>
  </defs>
  <!-- Background -->
  <rect width="32" height="32" rx="7" fill="url(#fbg)"/>
  <!-- Globe circle -->
  <circle cx="16" cy="16" r="10" stroke="white" stroke-width="1.2" fill="none" opacity="0.35"/>
  <!-- Meridian -->
  <ellipse cx="16" cy="16" rx="5.5" ry="10" stroke="white" stroke-width="0.8" fill="none" opacity="0.28"/>
  <!-- Parallels -->
  <line x1="6" y1="12.5" x2="26" y2="12.5" stroke="white" stroke-width="0.7" opacity="0.22"/>
  <line x1="6" y1="19.5" x2="26" y2="19.5" stroke="white" stroke-width="0.7" opacity="0.22"/>
  <!-- Location pin -->
  <path d="M16 6.5c-3.3 0-6 2.7-6 6 0 6 6 12 6 12s6-6 6-12c0-3.3-2.7-6-6-6z" fill="white" fill-opacity="0.95"/>
  <circle cx="16" cy="12.5" r="2.3" fill="#4f46e5"/>
  <!-- Small airplane -->
  <g transform="translate(24.5, 6) rotate(-25)">
    <path d="M0-2 1.3 0 3.8.8 1.3 1.7 0 4.2-1.3 1.7-3.8.8-1.3 0z" fill="white" opacity="0.6"/>
  </g>
</svg>
